<svg xmlns="http://www.w3.org/2000/svg" xmlns:xlink="http://www.w3.org/1999/xlink" version="1.1" x="0px" y="0px" viewBox="0 0 2048 2560" style="enable-background:new 0 0 2048 2048;" xml:space="preserve"><g><path d="M1708,1267.28H340c-46.32,0-84-37.68-84-84V864.72c0-46.32,37.68-84,84-84h1368c46.32,0,84,37.68,84,84v318.56   C1792,1229.6,1754.32,1267.28,1708,1267.28z M340,828.72c-19.85,0-36,16.15-36,36v318.56c0,19.85,16.15,36,36,36h1368   c19.85,0,36-16.15,36-36V864.72c0-19.85-16.15-36-36-36H340z"/><g><g><path d="M497.75,1153.82c-13.26,0-24-10.74-24-24V918.18c0-13.26,10.74-24,24-24s24,10.74,24,24v211.64     C521.75,1143.07,511.01,1153.82,497.75,1153.82z"/><path d="M403.42,1122.83c-7.08,0-14.08-3.11-18.82-9.09c-8.24-10.39-6.49-25.48,3.89-33.72L577.2,930.36     c10.39-8.24,25.48-6.49,33.72,3.89c8.24,10.39,6.49,25.48-3.89,33.72l-188.71,149.66     C413.9,1121.13,408.64,1122.83,403.42,1122.83z"/><path d="M592.09,1122.83c-5.22,0-10.49-1.7-14.9-5.2L388.49,967.97c-10.39-8.24-12.13-23.33-3.89-33.72     c8.24-10.39,23.33-12.13,33.72-3.89l188.71,149.66c10.39,8.24,12.13,23.33,3.89,33.72     C606.18,1119.72,599.17,1122.83,592.09,1122.83z"/></g><g><path d="M848.58,1153.82c-13.26,0-24-10.74-24-24V918.18c0-13.26,10.74-24,24-24s24,10.74,24,24v211.64     C872.58,1143.07,861.84,1153.82,848.58,1153.82z"/><path d="M754.25,1122.83c-7.08,0-14.08-3.11-18.82-9.09c-8.24-10.39-6.49-25.48,3.89-33.72l188.71-149.66     c10.39-8.24,25.48-6.49,33.72,3.89c8.24,10.39,6.49,25.48-3.89,33.72l-188.71,149.66     C764.73,1121.13,759.47,1122.83,754.25,1122.83z"/><path d="M942.92,1122.83c-5.22,0-10.49-1.7-14.9-5.2L739.32,967.97c-10.39-8.24-12.13-23.33-3.89-33.72     c8.24-10.39,23.33-12.13,33.72-3.89l188.71,149.66c10.39,8.24,12.13,23.33,3.89,33.72C957.01,1119.72,950,1122.83,942.92,1122.83     z"/></g><g><path d="M1199.42,1153.82c-13.26,0-24-10.74-24-24V918.18c0-13.26,10.74-24,24-24s24,10.74,24,24v211.64     C1223.42,1143.07,1212.68,1153.82,1199.42,1153.82z"/><path d="M1105.08,1122.83c-7.07,0-14.08-3.11-18.82-9.09c-8.24-10.39-6.49-25.48,3.89-33.72l188.71-149.66     c10.39-8.24,25.48-6.49,33.72,3.89c8.24,10.39,6.49,25.48-3.89,33.72l-188.71,149.66     C1115.56,1121.13,1110.3,1122.83,1105.08,1122.83z"/><path d="M1293.75,1122.83c-5.22,0-10.48-1.7-14.9-5.2l-188.71-149.66c-10.39-8.24-12.13-23.33-3.89-33.72s23.33-12.13,33.72-3.89     l188.71,149.66c10.39,8.24,12.13,23.33,3.89,33.72C1307.84,1119.72,1300.83,1122.83,1293.75,1122.83z"/></g><g><path d="M1550.25,1153.82c-13.26,0-24-10.74-24-24V918.18c0-13.26,10.74-24,24-24s24,10.74,24,24v211.64     C1574.25,1143.07,1563.51,1153.82,1550.25,1153.82z"/><path d="M1455.91,1122.83c-7.07,0-14.08-3.11-18.82-9.09c-8.23-10.39-6.49-25.48,3.89-33.72l188.71-149.66     c10.38-8.24,25.48-6.49,33.72,3.89c8.24,10.39,6.49,25.48-3.89,33.72l-188.71,149.66     C1466.39,1121.13,1461.13,1122.83,1455.91,1122.83z"/><path d="M1644.58,1122.83c-5.22,0-10.48-1.7-14.9-5.2l-188.71-149.66c-10.39-8.24-12.13-23.33-3.89-33.72     c8.24-10.39,23.33-12.13,33.72-3.89l188.71,149.66c10.39,8.24,12.13,23.33,3.89,33.72     C1658.67,1119.72,1651.66,1122.83,1644.58,1122.83z"/></g></g></g></svg>