<?xml version="1.0" encoding="UTF-8"?>
<svg width="404.7897974738676" height="303.328125" viewBox="0 0 383 287" class="css-1j8o68f" xmlns="http://www.w3.org/2000/svg">
  <defs id="SvgjsDefs3078"></defs>
  <g id="SvgjsG3079" transform="matrix(1,0,0,1,0,0)" fill="#111111">
    <path xmlns="http://www.w3.org/2000/svg" fill-rule="nonzero" d="             M0,0             H383             V287             H0,0             z             M4,4             v279             h375             v-279             z     "></path>
  </g>
  <g id="SvgjsG3080" transform="matrix(1.75,0,0,1.75,104.5,-3.322265625)" fill="#111111">
    <path xmlns="http://www.w3.org/2000/svg" d="M89,19.1918945h-4.777832v-5.1582031c0-2.2802734-1.8642578-4.1352539-4.1557617-4.1352539  c-2.2919922,0-4.15625,1.8549805-4.15625,4.1352539v5.1582031h-4.777832c-0.5522461,0-1,0.4477539-1,1v6.5302734  c0,0.5522461,0.4477539,1,1,1h0.8710938v1.5161133H27.996582V27.722168h0.8710938c0.5522461,0,1-0.4477539,1-1v-6.5302734  c0-0.5522461-0.4477539-1-1-1h-4.777832v-5.1582031c0-2.2802734-1.8642578-4.1352539-4.15625-4.1352539  c-2.2915039,0-4.1557617,1.8549805-4.1557617,4.1352539v5.1582031H11c-0.5522461,0-1,0.4477539-1,1v6.5302734  c0,0.5522461,0.4477539,1,1,1h0.8710938v44.4726562H11c-0.5522461,0-1,0.4477539-1,1v6.5302734c0,0.5522461,0.4477539,1,1,1  h4.777832v5.1401367C15.777832,88.1450195,17.6420898,90,19.9335938,90c2.2919922,0,4.15625-1.8549805,4.15625-4.1347656v-5.1401367  h4.777832c0.5522461,0,1-0.4477539,1-1v-6.5302734c0-0.5522461-0.4477539-1-1-1H27.996582v-1.6069336H72.003418v1.6069336  h-0.8710938c-0.5522461,0-1,0.4477539-1,1v6.5302734c0,0.5522461,0.4477539,1,1,1h4.777832v5.1401367  c0,2.2797852,1.8642578,4.1347656,4.15625,4.1347656c2.2915039,0,4.1557617-1.8549805,4.1557617-4.1347656v-5.1401367H89  c0.5522461,0,1-0.4477539,1-1v-6.5302734c0-0.5522461-0.4477539-1-1-1h-0.8710938V27.722168H89c0.5522461,0,1-0.4477539,1-1  v-6.5302734C90,19.6396484,89.5522461,19.1918945,89,19.1918945z M77.9101562,14.0336914  c0-1.1772461,0.9672852-2.1352539,2.15625-2.1352539c1.1884766,0,2.1557617,0.9580078,2.1557617,2.1352539v5.1582031h-4.3120117  V14.0336914z M72.1323242,21.1918945H88v4.5302734H72.1323242V21.1918945z M17.777832,14.0336914  c0-1.1772461,0.9672852-2.1352539,2.1557617-2.1352539c1.1889648,0,2.15625,0.9580078,2.15625,2.1352539v5.1582031H17.777832  V14.0336914z M12,21.1918945h15.8676758v4.5302734H12V21.1918945z M22.0898438,85.8652344  c0,1.1772461-0.9672852,2.1347656-2.15625,2.1347656c-1.1884766,0-2.1557617-0.9575195-2.1557617-2.1347656v-5.1401367h4.3120117  V85.8652344z M27.8676758,78.7250977H12v-4.5302734h15.8676758V78.7250977z M13.8710938,72.1948242V27.722168H25.996582v44.4726562  H13.8710938z M27.996582,68.5878906V31.2382812H72.003418v37.3496094H27.996582z M82.222168,85.8652344  C82.222168,87.0424805,81.2548828,88,80.0664062,88c-1.1889648,0-2.15625-0.9575195-2.15625-2.1347656v-5.1401367h4.3120117  V85.8652344z M88,78.7250977H72.1323242v-4.5302734H88V78.7250977z M86.1289062,72.1948242H74.003418V27.722168h12.1254883  V72.1948242z"></path>
  </g>
  <g id="SvgjsG3081" transform="matrix(2.2407168543373834,0,0,2.2407168543373834,13.504478630077358,147.8284328682692)" fill="#111111">
    <path d="M7.68 12 l3.2 19.88 l0.08 0 l2.96 -19.88 l6.12 0 l0 28 l-4.16 0 l0 -20.08 l-0.08 0 l-2.96 20.08 l-4.16 0 l-3.2 -19.8 l-0.08 0 l0 19.8 l-3.84 0 l0 -28 l6.12 0 z M29.985 18.44 l0 15.12 c0 2 0.88 2.76 2.28 2.76 s2.28 -0.76 2.28 -2.76 l0 -15.12 c0 -2 -0.88 -2.76 -2.28 -2.76 s-2.28 0.76 -2.28 2.76 z M25.584999999999997 33.28 l0 -14.56 c0 -4.48 2.36 -7.04 6.68 -7.04 s6.68 2.56 6.68 7.04 l0 14.56 c0 4.48 -2.36 7.04 -6.68 7.04 s-6.68 -2.56 -6.68 -7.04 z M48.53 18.44 l0 15.12 c0 2 0.88 2.76 2.28 2.76 s2.28 -0.76 2.28 -2.76 l0 -15.12 c0 -2 -0.88 -2.76 -2.28 -2.76 s-2.28 0.76 -2.28 2.76 z M44.13 33.28 l0 -14.56 c0 -4.48 2.36 -7.04 6.68 -7.04 s6.68 2.56 6.68 7.04 l0 14.56 c0 4.48 -2.36 7.04 -6.68 7.04 s-6.68 -2.56 -6.68 -7.04 z M76.715 40 l-4.48 0 c-0.24 -0.72 -0.4 -1.16 -0.4 -3.44 l0 -4.4 c0 -2.6 -0.88 -3.56 -2.88 -3.56 l-1.52 0 l0 11.4 l-4.4 0 l0 -28 l6.64 0 c4.56 0 6.52 2.12 6.52 6.44 l0 2.2 c0 2.88 -0.92 4.72 -2.88 5.64 l0 0.08 c2.2 0.92 2.92 3 2.92 5.92 l0 4.32 c0 1.36 0.04 2.36 0.48 3.4 z M69.555 16 l-2.12 0 l0 8.6 l1.72 0 c1.64 0 2.64 -0.72 2.64 -2.96 l0 -2.76 c0 -2 -0.68 -2.88 -2.24 -2.88 z M90.725 40 l0 -28 l4.4 0 l0 24 l7.24 0 l0 4 l-11.64 0 z M116.75 12 l4.48 28 l-4.44 0 l-0.76 -5.08 l-5.4 0 l-0.76 5.08 l-4.04 0 l4.48 -28 l6.44 0 z M113.27 16.96 l-2.08 14.16 l4.24 0 l-2.08 -14.16 l-0.08 0 z M135.375 40 l-5.4 -20.28 l-0.08 0 l0 20.28 l-3.96 0 l0 -28 l5.52 0 l4.44 16.76 l0.08 0 l0 -16.76 l3.92 0 l0 28 l-4.52 0 z M150.16 16 l0 7.8 l6.04 0 l0 4 l-6.04 0 l0 8.2 l7.6 0 l0 4 l-12 0 l0 -28 l12 0 l0 4 l-7.6 0 z"></path>
  </g>
  <g id="SvgjsG3082" transform="matrix(1.0122856184243785,0,0,1.0122856184243785,51.29808124717899,252.23680472141194)" fill="#111111">
    <path d="M6.5137 20.19531 c-3.0273 0 -5.3906 -1.4551 -5.8203 -4.1016 l3.0273 -0.69336 c0.19531 1.582 1.3574 2.4023 2.9102 2.4023 c1.1914 0 2.1387 -0.52734 2.1289 -1.7188 c-0.0097656 -1.3281 -1.5723 -1.748 -3.291 -2.2754 c-2.0703 -0.64453 -4.2871 -1.4063 -4.2871 -4.0039 c0 -2.627 2.1484 -4.1113 4.9805 -4.1113 c2.4805 0 4.9805 1.0059 5.5469 3.7109 l-2.832 0.70313 c-0.26367 -1.4063 -1.2109 -2.0215 -2.5391 -2.0215 c-1.1816 0 -2.1875 0.48828 -2.1875 1.6504 c0 1.084 1.3867 1.4453 2.9883 1.9238 c2.1289 0.64453 4.6484 1.4648 4.6484 4.2773 c0 2.998 -2.5098 4.2578 -5.2734 4.2578 z M20.361315625 5.888999999999999 c2.7637 0 4.4824 2.0508 4.4824 4.5605 c0 2.5684 -1.7188 4.4922 -4.4824 4.4922 l-2.9395 0 l0 5.0586 l-2.9297 0 l0 -14.111 l5.8691 0 z M19.873015625 12.4902 c1.4648 0 2.1484 -0.81055 2.1484 -2.0801 c0 -1.2207 -0.68359 -2.0703 -2.1484 -2.0703 l-2.4512 0 l0 4.1504 l2.4512 0 z M36.748515624999996 20 l-1.0254 -2.9102 l-5.9277 0 l-1.0254 2.9102 l-2.998 0 l5.1953 -14.111 l3.584 0 l5.1953 14.111 l-2.998 0 z M30.654315625 14.6387 l4.209 0 l-2.0996 -5.9863 z M51.5040625 5.888999999999999 l2.9199 0 l0 14.111 l-3.3887 0 l-6.25 -10.088 l0 10.088 l-2.9199 0 l0 -14.111 l3.3496 0 l6.2891 10.029 l0 -10.029 z M58.0762 20 l0 -14.111 l2.9297 0 l0 14.111 l-2.9297 0 z M69.335965625 20.19531 c-3.0273 0 -5.3906 -1.4551 -5.8203 -4.1016 l3.0273 -0.69336 c0.19531 1.582 1.3574 2.4023 2.9102 2.4023 c1.1914 0 2.1387 -0.52734 2.1289 -1.7188 c-0.0097656 -1.3281 -1.5723 -1.748 -3.291 -2.2754 c-2.0703 -0.64453 -4.2871 -1.4063 -4.2871 -4.0039 c0 -2.627 2.1484 -4.1113 4.9805 -4.1113 c2.4805 0 4.9805 1.0059 5.5469 3.7109 l-2.832 0.70313 c-0.26367 -1.4063 -1.2109 -2.0215 -2.5391 -2.0215 c-1.1816 0 -2.1875 0.48828 -2.1875 1.6504 c0 1.084 1.3867 1.4453 2.9883 1.9238 c2.1289 0.64453 4.6484 1.4648 4.6484 4.2773 c0 2.998 -2.5098 4.2578 -5.2734 4.2578 z M86.21128125 5.888999999999999 l2.9297 0 l0 14.111 l-2.9297 0 l0 -5.8008 l-5.9668 0 l0 5.8008 l-2.9297 0 l0 -14.111 l2.9297 0 l0 5.7617 l5.9668 0 l0 -5.7617 z M107.432109375 20 l-1.0254 -2.9102 l-5.9277 0 l-1.0254 2.9102 l-2.998 0 l5.1953 -14.111 l3.584 0 l5.1953 14.111 l-2.998 0 z M101.337909375 14.6387 l4.209 0 l-2.0996 -5.9863 z M122.18765625 5.888999999999999 l2.9199 0 l0 14.111 l-3.3887 0 l-6.25 -10.088 l0 10.088 l-2.9199 0 l0 -14.111 l3.3496 0 l6.2891 10.029 l0 -10.029 z M128.75979375 20 l0 -14.111 l5.1074 0 c4.502 0 6.7285 2.832 6.7285 7.0508 c0 4.2285 -2.2266 7.0605 -6.7285 7.0605 l-5.1074 0 z M131.68949375 17.4121 l2.0313 0 c2.5977 0 3.7891 -1.6211 3.7891 -4.4727 s-1.1914 -4.4727 -3.7891 -4.4727 l-2.0313 0 l0 8.9453 z M154.404284375 5.888999999999999 c2.7637 0 4.4824 2.0508 4.4824 4.5605 c0 2.5684 -1.7188 4.4922 -4.4824 4.4922 l-2.9395 0 l0 5.0586 l-2.9297 0 l0 -14.111 l5.8691 0 z M153.915984375 12.4902 c1.4648 0 2.1484 -0.81055 2.1484 -2.0801 c0 -1.2207 -0.68359 -2.0703 -2.1484 -2.0703 l-2.4512 0 l0 4.1504 l2.4512 0 z M167.597684375 20.19531 c-4.1504 0 -7.2168 -2.832 -7.2168 -7.2559 c0 -4.4336 3.0664 -7.2461 7.2168 -7.2461 c4.1406 0 7.207 2.8125 7.207 7.2461 c0 4.4238 -3.0664 7.2559 -7.207 7.2559 z M167.597684375 17.5098 c2.4316 0 4.2969 -1.709 4.2969 -4.5703 c0 -2.8516 -1.8652 -4.5508 -4.2969 -4.5508 s-4.2969 1.6992 -4.2969 4.5508 c0 2.8613 1.8652 4.5703 4.2969 4.5703 z M184.951128125 20 l-3.6719 -6.2109 l-0.84961 0 l0 6.2109 l-2.9297 0 l0 -14.111 l5.1172 0 c3.1934 0 4.541 1.8848 4.541 4.2188 c0 1.8945 -1.0742 3.125 -2.9883 3.5352 l4.248 6.3574 l-3.4668 0 z M180.429728125 8.32 l0 3.3691 l1.7285 0 c1.5625 0 2.1973 -0.66406 2.1973 -1.6797 c0 -1.0059 -0.63477 -1.6895 -2.1973 -1.6895 l-1.7285 0 z M198.750234375 5.888999999999999 l0 2.5781 l-3.3496 0 l0 11.533 l-2.9004 0 l0 -11.533 l-3.3691 0 l0 -2.5781 l9.6191 0 z M206.191425 20.19531 c-3.0957 0 -5.5176 -1.582 -5.5176 -5.1367 l0 -9.1699 l2.9297 0 l0 8.7695 c0 2.1484 1.1426 2.9492 2.5879 2.9492 c1.4551 0 2.6074 -0.81055 2.6074 -2.9492 l0 -8.7695 l2.9297 0 l0 9.1699 c0 3.5547 -2.4316 5.1367 -5.5371 5.1367 z M221.19141875 20.19531 c-4.0723 0 -7.0703 -2.8125 -7.0703 -7.2168 c0 -4.4629 3.0664 -7.2852 7.2168 -7.2852 c2.7246 0 4.9805 1.2012 6.2109 3.3203 l-2.5684 1.3672 c-0.74219 -1.4453 -2.0703 -2.1387 -3.6426 -2.1387 c-2.4414 0 -4.2773 1.6797 -4.2773 4.668 c0 2.8809 1.7188 4.7363 4.3848 4.7363 c1.8066 0 3.4668 -0.89844 3.8672 -2.959 l-3.8574 0 l0 -2.3535 l6.6309 0 l0 7.666 l-2.3047 0 l0 -1.9531 c-0.9082 1.3379 -2.4316 2.1484 -4.5898 2.1484 z M236.347675 20.19531 c-3.0957 0 -5.5176 -1.582 -5.5176 -5.1367 l0 -9.1699 l2.9297 0 l0 8.7695 c0 2.1484 1.1426 2.9492 2.5879 2.9492 c1.4551 0 2.6074 -0.81055 2.6074 -2.9492 l0 -8.7695 l2.9297 0 l0 9.1699 c0 3.5547 -2.4316 5.1367 -5.5371 5.1367 z M253.42796875 8.467 l-5.2344 0 l0 3.2031 l4.6387 0 l0 2.5488 l-4.6387 0 l0 3.1934 l5.2344 0 l0 2.5879 l-8.1836 0 l0 -14.111 l8.1836 0 l0 2.5781 z M261.132840625 20.19531 c-3.0273 0 -5.3906 -1.4551 -5.8203 -4.1016 l3.0273 -0.69336 c0.19531 1.582 1.3574 2.4023 2.9102 2.4023 c1.1914 0 2.1387 -0.52734 2.1289 -1.7188 c-0.0097656 -1.3281 -1.5723 -1.748 -3.291 -2.2754 c-2.0703 -0.64453 -4.2871 -1.4063 -4.2871 -4.0039 c0 -2.627 2.1484 -4.1113 4.9805 -4.1113 c2.4805 0 4.9805 1.0059 5.5469 3.7109 l-2.832 0.70313 c-0.26367 -1.4063 -1.2109 -2.0215 -2.5391 -2.0215 c-1.1816 0 -2.1875 0.48828 -2.1875 1.6504 c0 1.084 1.3867 1.4453 2.9883 1.9238 c2.1289 0.64453 4.6484 1.4648 4.6484 4.2773 c0 2.998 -2.5098 4.2578 -5.2734 4.2578 z M277.29515625 8.467 l-5.2344 0 l0 3.2031 l4.6387 0 l0 2.5488 l-4.6387 0 l0 3.1934 l5.2344 0 l0 2.5879 l-8.1836 0 l0 -14.111 l8.1836 0 l0 2.5781 z"></path>
  </g>
</svg>
