<svg xmlns="http://www.w3.org/2000/svg" xmlns:xlink="http://www.w3.org/1999/xlink" viewBox="0 0 81 48.75" version="1.1" x="0px" y="0px"><title>Group 6</title><desc>Created with Sketch.</desc><g stroke="none" stroke-width="1" fill="none" fill-rule="evenodd"><g transform="translate(-3242.000000, -3053.000000)" fill="#000000"><g transform="translate(3242.340000, 3053.800000)"><path d="M0.642028663,19.3164328 L13.0603149,0.576116009 C13.0603149,0.576116009 27.0816093,-2.47533239 38.3946669,8.42055022 C38.3946669,8.42055022 39.0447656,36.8069657 39.0447656,36.8069657 C39.0447656,36.8069657 26.8188265,18.559317 0.504231735,19.4031887"/><path d="M0.394228436,28.115955 L3.21709749,23.4614219 C3.21709749,23.4614219 21.6908968,23.8300825 37.0385677,38.1527465 C37.0385677,38.1527465 18.2388203,27.0031731 0.247443279,28.2072785"/><g transform="translate(60.611287, 19.112746) scale(-1, 1) translate(-60.611287, -19.112746) translate(41.091287, 0.072746)"><path d="M0.59026509,19.2436863 L13.0085514,0.503369534 C13.0085514,0.503369534 27.0298458,-2.54807887 38.3429033,8.34780374 C38.3429033,8.34780374 38.993002,36.7342192 38.993002,36.7342192 C38.993002,36.7342192 26.7670629,18.4865705 0.452468162,19.3304422"/><path d="M0.342464863,28.0432085 L3.16533391,23.3886755 C3.16533391,23.3886755 21.6391333,23.757336 36.9868041,38.08 C36.9868041,38.08 18.1870567,26.9304266 0.195679705,28.1345321"/></g></g></g></g><text x="0" y="54" fill="#000000" font-size="5px" font-weight="bold" font-family="'Helvetica Neue', Helvetica, Arial-Unicode, Arial, Sans-serif">Created by Kevin</text><text x="0" y="59" fill="#000000" font-size="5px" font-weight="bold" font-family="'Helvetica Neue', Helvetica, Arial-Unicode, Arial, Sans-serif">from the Noun Project</text></svg>